<svg id="svg" xmlns="http://www.w3.org/2000/svg" xmlns:xlink="http://www.w3.org/1999/xlink" width="400" height="200" viewBox="0, 0, 510,320"><g id="svgg"><path id="path1" d="M239.821 91.833 C 237.622 92.166,235.633 92.511,235.402 92.600 C 235.170 92.688,232.764 93.129,230.054 93.578 C 219.847 95.271,213.742 97.031,207.168 100.177 C 204.903 101.261,200.558 103.143,197.513 104.360 C 190.601 107.123,188.127 108.364,182.490 111.900 C 180.026 113.446,176.493 115.647,174.639 116.790 C 172.785 117.933,169.413 120.080,167.145 121.562 C 164.878 123.043,162.484 124.529,161.827 124.865 C 161.169 125.200,160.433 125.713,160.192 126.004 C 159.950 126.295,158.299 127.525,156.522 128.738 C 149.900 133.255,143.050 140.152,134.684 150.722 C 132.588 153.371,129.695 156.766,128.254 158.266 C 123.457 163.264,120.036 167.846,114.888 176.169 C 112.507 180.019,114.466 182.238,119.500 181.394 C 126.041 180.298,125.766 180.445,128.827 176.404 C 129.898 174.992,131.495 172.992,132.378 171.961 C 133.260 170.930,134.645 169.198,135.455 168.112 C 136.265 167.027,137.382 165.848,137.936 165.493 C 138.491 165.138,139.175 164.374,139.455 163.796 C 139.953 162.770,141.887 160.318,145.155 156.570 C 146.046 155.548,148.024 153.671,149.551 152.398 C 151.078 151.125,153.812 148.747,155.627 147.113 C 157.442 145.479,159.412 143.939,160.005 143.692 C 160.597 143.444,161.349 142.790,161.675 142.238 C 162.224 141.308,165.248 139.130,171.705 135.013 C 173.005 134.184,174.802 132.926,175.699 132.217 C 176.596 131.508,178.060 130.562,178.954 130.114 C 179.847 129.667,180.795 129.115,181.059 128.888 C 181.659 128.375,186.643 125.525,190.690 123.381 C 192.368 122.492,195.205 121.298,196.995 120.727 C 199.198 120.024,200.790 119.283,201.923 118.432 C 202.843 117.741,203.721 117.175,203.875 117.175 C 204.029 117.175,204.917 116.831,205.849 116.411 C 209.720 114.667,210.789 114.253,212.651 113.773 C 213.727 113.497,215.366 112.837,216.294 112.309 C 217.361 111.700,218.776 111.235,220.146 111.041 C 221.337 110.873,223.756 110.242,225.522 109.640 C 232.529 107.250,239.759 105.708,247.352 104.983 C 248.764 104.849,250.347 104.567,250.868 104.359 C 251.586 104.071,253.660 104.057,259.375 104.301 C 263.533 104.478,267.151 104.600,267.416 104.571 C 268.852 104.417,278.807 106.158,279.991 106.770 C 280.477 107.021,281.927 107.447,283.214 107.717 C 284.501 107.987,286.589 108.564,287.855 108.999 C 289.120 109.435,290.574 109.791,291.085 109.791 C 294.396 109.791,306.060 113.818,314.696 117.942 C 317.031 119.057,319.194 120.058,319.504 120.168 C 324.805 122.038,340.537 134.484,345.951 141.091 C 347.254 142.681,349.202 144.992,350.281 146.228 C 356.887 153.791,360.646 158.367,362.811 161.477 C 363.856 162.978,365.463 165.248,366.384 166.523 C 367.305 167.798,368.474 169.423,368.983 170.133 C 369.492 170.844,370.174 172.231,370.499 173.216 C 370.824 174.200,371.509 175.537,372.022 176.187 C 372.534 176.836,373.353 178.379,373.841 179.615 C 376.071 185.263,375.861 185.112,381.862 185.377 C 388.278 185.659,388.703 185.448,388.703 181.965 C 388.703 177.428,387.580 174.822,383.977 170.997 C 382.585 169.519,381.051 167.675,380.568 166.900 C 380.084 166.124,378.950 164.676,378.047 163.683 C 373.985 159.213,372.681 157.590,371.361 155.358 C 370.584 154.044,369.450 152.309,368.842 151.501 C 368.234 150.694,367.038 149.105,366.183 147.970 C 364.021 145.099,356.201 136.933,350.351 131.439 C 345.036 126.447,340.919 123.463,328.411 115.538 C 324.719 113.199,316.218 109.003,312.039 107.457 C 310.361 106.836,307.550 105.794,305.792 105.140 C 304.034 104.487,301.362 103.336,299.853 102.581 C 295.462 100.386,285.251 96.639,281.382 95.803 C 279.439 95.383,276.982 94.837,275.923 94.589 C 260.668 91.024,250.373 90.238,239.821 91.833 M295.504 250.082 C 295.183 250.436,295.016 250.821,295.131 250.936 C 295.365 251.170,296.629 250.135,296.629 249.709 C 296.629 249.241,296.110 249.413,295.504 250.082 M288.031 251.587 C 285.929 252.605,285.030 255.091,286.872 254.792 C 288.719 254.492,289.567 253.771,289.567 252.500 C 289.567 251.117,289.313 250.966,288.031 251.587 M207.765 257.805 C 207.842 258.037,208.095 258.290,208.327 258.367 C 208.567 258.447,208.688 258.327,208.608 258.086 C 208.530 257.854,208.277 257.601,208.046 257.524 C 207.805 257.444,207.685 257.564,207.765 257.805 M211.316 259.087 C 209.696 260.605,210.332 262.135,212.900 262.897 C 214.802 263.462,215.088 263.767,215.088 265.236 C 215.088 268.338,220.954 273.258,222.472 271.429 C 223.381 270.333,224.576 270.836,226.344 273.059 C 227.268 274.220,228.834 275.764,229.823 276.490 C 230.812 277.217,232.735 278.706,234.096 279.800 C 235.457 280.894,238.038 282.543,239.831 283.464 L 243.092 285.138 244.098 284.384 C 244.916 283.771,245.525 283.624,247.352 283.597 C 250.390 283.553,254.983 282.055,255.716 280.871 C 256.075 280.289,256.159 277.035,255.837 276.187 C 255.438 275.137,251.217 273.194,249.335 273.194 C 245.374 273.194,242.964 276.804,243.816 281.461 C 244.011 282.528,243.969 282.825,243.622 282.824 C 242.437 282.821,234.148 276.842,231.057 273.761 C 229.686 272.395,228.010 270.994,227.330 270.648 C 226.569 270.260,225.935 269.631,225.678 269.010 C 225.444 268.445,224.683 267.644,223.946 267.188 C 223.224 266.740,222.325 266.094,221.950 265.752 C 221.575 265.411,220.518 264.934,219.602 264.692 C 217.202 264.059,216.415 263.419,215.514 261.370 C 214.034 258.004,213.045 257.466,211.316 259.087 M277.849 263.546 C 276.475 264.108,274.927 269.021,276.124 269.021 C 277.737 269.021,280.578 266.108,280.578 264.456 C 280.578 263.558,279.057 263.051,277.849 263.546 M257.785 281.216 C 257.213 281.580,257.692 282.601,258.510 282.762 C 259.653 282.988,261.534 281.862,260.854 281.359 C 260.145 280.836,258.502 280.759,257.785 281.216 M261.156 287.327 C 259.920 287.455,258.475 287.707,257.945 287.887 C 257.416 288.066,255.754 288.465,254.254 288.773 C 252.753 289.081,250.080 289.693,248.315 290.134 C 243.718 291.280,243.370 291.301,241.479 290.556 C 238.906 289.542,239.015 289.397,238.918 293.965 C 238.836 297.779,238.882 298.140,239.647 299.661 C 240.096 300.554,240.809 302.512,241.232 304.013 C 244.796 316.648,245.814 318.704,248.662 319.025 C 250.109 319.188,250.161 319.161,251.805 317.394 C 253.761 315.292,258.542 304.851,259.917 299.679 C 260.340 298.090,260.972 295.958,261.322 294.943 C 261.672 293.927,261.958 292.888,261.958 292.635 C 261.958 292.382,262.620 291.209,263.429 290.028 C 265.748 286.640,265.910 286.831,261.156 287.327 M258.748 289.567 C 260.230 291.048,258.736 296.195,253.624 307.223 C 249.841 315.384,248.482 316.586,247.570 312.579 C 247.135 310.662,244.480 301.583,243.163 297.505 C 241.551 292.515,241.922 291.733,246.067 291.374 C 247.303 291.267,249.398 290.877,250.722 290.508 C 252.922 289.895,256.721 289.054,257.705 288.962 C 257.925 288.941,258.395 289.213,258.748 289.567 " stroke="none" fill="black" fill-rule="evenodd"></path></g></svg>